<svg width="145" height="35" viewBox="0 0 145 35" fill="none" xmlns="http://www.w3.org/2000/svg">
<g clip-path="url(#clip0_7265_119432)">
<path d="M35 17.5C35 7.83502 27.165 0 17.5 0C7.83502 0 0 7.83502 0 17.5C0 27.165 7.83502 35 17.5 35C27.165 35 35 27.165 35 17.5Z" fill="url(#paint0_linear_7265_119432)"></path>
<path d="M8.5 20.0657V17.5959C8.5 16.4472 8.5 15.8728 8.64805 15.3439C8.7792 14.8754 8.99473 14.4347 9.28405 14.0435C9.61067 13.6019 10.064 13.2493 10.9708 12.544L13.5708 10.5218C14.9761 9.4288 15.6787 8.8823 16.4546 8.67222C17.1392 8.48686 17.8608 8.48686 18.5454 8.67222C19.3213 8.8823 20.0239 9.42881 21.4292 10.5218L24.0292 12.544C24.936 13.2493 25.3893 13.6019 25.7159 14.0435C26.0053 14.4347 26.2208 14.8754 26.3519 15.3439C26.5 15.8728 26.5 16.4472 26.5 17.5959V20.0657C26.5 22.3059 26.5 23.4261 26.064 24.2817C25.6805 25.0343 25.0686 25.6463 24.316 26.0298C23.4603 26.4657 22.3402 26.4657 20.1 26.4657H14.9C12.6598 26.4657 11.5397 26.4657 10.684 26.0298C9.93139 25.6463 9.31947 25.0343 8.93597 24.2817C8.5 23.4261 8.5 22.3059 8.5 20.0657Z" stroke="white" stroke-width="2" stroke-linecap="round" stroke-linejoin="round"></path>
<path d="M21.476 13.1167C21.4342 12.9365 21.339 12.7758 21.2046 12.6587C21.0702 12.5416 20.9039 12.4745 20.7308 12.4674C20.5576 12.4604 20.3871 12.5138 20.2447 12.6196C20.1024 12.7254 19.996 12.8779 19.9416 13.0541L17.3928 21.2425L15.0312 15.5482C14.9669 15.3946 14.8619 15.2646 14.7292 15.1745C14.5966 15.0843 14.4421 15.0379 14.285 15.041C14.1279 15.0441 13.9752 15.0966 13.8457 15.1919C13.7162 15.2873 13.6158 15.4213 13.5568 15.5773L12.1584 19.3244H9.5V21.0385H12.1584C12.8168 21.0385 13.4 20.6151 13.6432 19.9612L14.3384 18.0996L16.768 23.9577C16.8976 24.2688 17.1848 24.4668 17.5 24.4668L17.5384 24.4659C17.6996 24.4577 17.8546 24.3974 17.9832 24.2929C18.1117 24.1884 18.2077 24.0447 18.2584 23.8806L20.5896 16.3881L21.3728 19.7401C21.4587 20.1113 21.6583 20.4409 21.9396 20.6763C22.2209 20.9117 22.5678 21.0392 22.9248 21.0385H25.5V19.3244H22.924L21.476 13.1167Z" fill="white"></path>
</g>
<path d="M54.614 18.216C53.618 18.216 52.694 18.054 51.842 17.73C51.002 17.406 50.27 16.95 49.646 16.362C49.034 15.774 48.554 15.084 48.206 14.292C47.87 13.5 47.702 12.636 47.702 11.7C47.702 10.764 47.87 9.9 48.206 9.108C48.554 8.316 49.04 7.626 49.664 7.038C50.288 6.45 51.02 5.994 51.86 5.67C52.7 5.346 53.612 5.184 54.596 5.184C55.592 5.184 56.504 5.346 57.332 5.67C58.172 5.994 58.898 6.45 59.51 7.038C60.134 7.626 60.62 8.316 60.968 9.108C61.316 9.888 61.49 10.752 61.49 11.7C61.49 12.636 61.316 13.506 60.968 14.31C60.62 15.102 60.134 15.792 59.51 16.38C58.898 16.956 58.172 17.406 57.332 17.73C56.504 18.054 55.598 18.216 54.614 18.216ZM54.596 15.732C55.16 15.732 55.676 15.636 56.144 15.444C56.624 15.252 57.044 14.976 57.404 14.616C57.764 14.256 58.04 13.83 58.232 13.338C58.436 12.846 58.538 12.3 58.538 11.7C58.538 11.1 58.436 10.554 58.232 10.062C58.04 9.57 57.764 9.144 57.404 8.784C57.056 8.424 56.642 8.148 56.162 7.956C55.682 7.764 55.16 7.668 54.596 7.668C54.032 7.668 53.51 7.764 53.03 7.956C52.562 8.148 52.148 8.424 51.788 8.784C51.428 9.144 51.146 9.57 50.942 10.062C50.75 10.554 50.654 11.1 50.654 11.7C50.654 12.288 50.75 12.834 50.942 13.338C51.146 13.83 51.422 14.256 51.77 14.616C52.13 14.976 52.55 15.252 53.03 15.444C53.51 15.636 54.032 15.732 54.596 15.732ZM67.5314 18.144C66.3914 18.144 65.5034 17.856 64.8674 17.28C64.2314 16.692 63.9134 15.822 63.9134 14.67V6.174H66.7214V14.634C66.7214 15.042 66.8294 15.36 67.0454 15.588C67.2614 15.804 67.5554 15.912 67.9274 15.912C68.3714 15.912 68.7494 15.792 69.0614 15.552L69.8174 17.532C69.5294 17.736 69.1814 17.892 68.7734 18C68.3774 18.096 67.9634 18.144 67.5314 18.144ZM62.4194 10.692V8.532H69.1334V10.692H62.4194ZM77.3337 18V16.11L77.1537 15.696V12.312C77.1537 11.712 76.9677 11.244 76.5957 10.908C76.2357 10.572 75.6777 10.404 74.9217 10.404C74.4057 10.404 73.8957 10.488 73.3917 10.656C72.8997 10.812 72.4797 11.028 72.1317 11.304L71.1237 9.342C71.6517 8.97 72.2877 8.682 73.0317 8.478C73.7757 8.274 74.5317 8.172 75.2997 8.172C76.7757 8.172 77.9217 8.52 78.7377 9.216C79.5537 9.912 79.9617 10.998 79.9617 12.474V18H77.3337ZM74.3817 18.144C73.6257 18.144 72.9777 18.018 72.4377 17.766C71.8977 17.502 71.4837 17.148 71.1957 16.704C70.9077 16.26 70.7637 15.762 70.7637 15.21C70.7637 14.634 70.9017 14.13 71.1777 13.698C71.4657 13.266 71.9157 12.93 72.5277 12.69C73.1397 12.438 73.9377 12.312 74.9217 12.312H77.4957V13.95H75.2277C74.5677 13.95 74.1117 14.058 73.8597 14.274C73.6197 14.49 73.4997 14.76 73.4997 15.084C73.4997 15.444 73.6377 15.732 73.9137 15.948C74.2017 16.152 74.5917 16.254 75.0837 16.254C75.5517 16.254 75.9717 16.146 76.3437 15.93C76.7157 15.702 76.9857 15.372 77.1537 14.94L77.5857 16.236C77.3817 16.86 77.0097 17.334 76.4697 17.658C75.9297 17.982 75.2337 18.144 74.3817 18.144ZM88.389 8.172C89.157 8.172 89.841 8.328 90.441 8.64C91.053 8.94 91.533 9.408 91.881 10.044C92.229 10.668 92.403 11.472 92.403 12.456V18H89.595V12.888C89.595 12.108 89.421 11.532 89.073 11.16C88.737 10.788 88.257 10.602 87.633 10.602C87.189 10.602 86.787 10.698 86.427 10.89C86.079 11.07 85.803 11.352 85.599 11.736C85.407 12.12 85.311 12.612 85.311 13.212V18H82.503V8.316H85.185V10.998L84.681 10.188C85.029 9.54 85.527 9.042 86.175 8.694C86.823 8.346 87.561 8.172 88.389 8.172ZM99.5727 21.636C98.6607 21.636 97.7787 21.522 96.9267 21.294C96.0867 21.078 95.3847 20.748 94.8207 20.304L95.9367 18.288C96.3447 18.624 96.8607 18.888 97.4847 19.08C98.1207 19.284 98.7447 19.386 99.3567 19.386C100.353 19.386 101.073 19.164 101.517 18.72C101.973 18.276 102.201 17.616 102.201 16.74V15.282L102.381 12.852L102.345 10.404V8.316H105.009V16.38C105.009 18.18 104.541 19.506 103.605 20.358C102.669 21.21 101.325 21.636 99.5727 21.636ZM99.1407 17.532C98.2407 17.532 97.4247 17.34 96.6927 16.956C95.9727 16.56 95.3907 16.014 94.9467 15.318C94.5147 14.61 94.2987 13.788 94.2987 12.852C94.2987 11.904 94.5147 11.082 94.9467 10.386C95.3907 9.678 95.9727 9.132 96.6927 8.748C97.4247 8.364 98.2407 8.172 99.1407 8.172C99.9567 8.172 100.677 8.34 101.301 8.676C101.925 9 102.411 9.51 102.759 10.206C103.107 10.89 103.281 11.772 103.281 12.852C103.281 13.92 103.107 14.802 102.759 15.498C102.411 16.182 101.925 16.692 101.301 17.028C100.677 17.364 99.9567 17.532 99.1407 17.532ZM99.6987 15.228C100.191 15.228 100.629 15.132 101.013 14.94C101.397 14.736 101.697 14.454 101.913 14.094C102.129 13.734 102.237 13.32 102.237 12.852C102.237 12.372 102.129 11.958 101.913 11.61C101.697 11.25 101.397 10.974 101.013 10.782C100.629 10.578 100.191 10.476 99.6987 10.476C99.2067 10.476 98.7687 10.578 98.3847 10.782C98.0007 10.974 97.6947 11.25 97.4667 11.61C97.2507 11.958 97.1427 12.372 97.1427 12.852C97.1427 13.32 97.2507 13.734 97.4667 14.094C97.6947 14.454 98.0007 14.736 98.3847 14.94C98.7687 15.132 99.2067 15.228 99.6987 15.228ZM112.428 18.144C111.324 18.144 110.352 17.928 109.512 17.496C108.684 17.064 108.042 16.476 107.586 15.732C107.13 14.976 106.902 14.118 106.902 13.158C106.902 12.186 107.124 11.328 107.568 10.584C108.024 9.828 108.642 9.24 109.422 8.82C110.202 8.388 111.084 8.172 112.068 8.172C113.016 8.172 113.868 8.376 114.624 8.784C115.392 9.18 115.998 9.756 116.442 10.512C116.886 11.256 117.108 12.15 117.108 13.194C117.108 13.302 117.102 13.428 117.09 13.572C117.078 13.704 117.066 13.83 117.054 13.95H109.188V12.312H115.578L114.498 12.798C114.498 12.294 114.396 11.856 114.192 11.484C113.988 11.112 113.706 10.824 113.346 10.62C112.986 10.404 112.566 10.296 112.086 10.296C111.606 10.296 111.18 10.404 110.808 10.62C110.448 10.824 110.166 11.118 109.962 11.502C109.758 11.874 109.656 12.318 109.656 12.834V13.266C109.656 13.794 109.77 14.262 109.998 14.67C110.238 15.066 110.568 15.372 110.988 15.588C111.42 15.792 111.924 15.894 112.5 15.894C113.016 15.894 113.466 15.816 113.85 15.66C114.246 15.504 114.606 15.27 114.93 14.958L116.424 16.578C115.98 17.082 115.422 17.472 114.75 17.748C114.078 18.012 113.304 18.144 112.428 18.144ZM118.978 18V4.644H121.786V18H118.978ZM129.198 18.144C128.094 18.144 127.122 17.928 126.282 17.496C125.454 17.064 124.812 16.476 124.356 15.732C123.9 14.976 123.672 14.118 123.672 13.158C123.672 12.186 123.894 11.328 124.338 10.584C124.794 9.828 125.412 9.24 126.192 8.82C126.972 8.388 127.854 8.172 128.838 8.172C129.786 8.172 130.638 8.376 131.394 8.784C132.162 9.18 132.768 9.756 133.212 10.512C133.656 11.256 133.878 12.15 133.878 13.194C133.878 13.302 133.872 13.428 133.86 13.572C133.848 13.704 133.836 13.83 133.824 13.95H125.958V12.312H132.348L131.268 12.798C131.268 12.294 131.166 11.856 130.962 11.484C130.758 11.112 130.476 10.824 130.116 10.62C129.756 10.404 129.336 10.296 128.856 10.296C128.376 10.296 127.95 10.404 127.578 10.62C127.218 10.824 126.936 11.118 126.732 11.502C126.528 11.874 126.426 12.318 126.426 12.834V13.266C126.426 13.794 126.54 14.262 126.768 14.67C127.008 15.066 127.338 15.372 127.758 15.588C128.19 15.792 128.694 15.894 129.27 15.894C129.786 15.894 130.236 15.816 130.62 15.66C131.016 15.504 131.376 15.27 131.7 14.958L133.194 16.578C132.75 17.082 132.192 17.472 131.52 17.748C130.848 18.012 130.074 18.144 129.198 18.144ZM139.005 18.144C138.177 18.144 137.379 18.048 136.611 17.856C135.855 17.652 135.255 17.4 134.811 17.1L135.747 15.084C136.191 15.36 136.713 15.588 137.313 15.768C137.925 15.936 138.525 16.02 139.113 16.02C139.761 16.02 140.217 15.942 140.481 15.786C140.757 15.63 140.895 15.414 140.895 15.138C140.895 14.91 140.787 14.742 140.571 14.634C140.367 14.514 140.091 14.424 139.743 14.364C139.395 14.304 139.011 14.244 138.591 14.184C138.183 14.124 137.769 14.046 137.349 13.95C136.929 13.842 136.545 13.686 136.197 13.482C135.849 13.278 135.567 13.002 135.351 12.654C135.147 12.306 135.045 11.856 135.045 11.304C135.045 10.692 135.219 10.152 135.567 9.684C135.927 9.216 136.443 8.85 137.115 8.586C137.787 8.31 138.591 8.172 139.527 8.172C140.187 8.172 140.859 8.244 141.543 8.388C142.227 8.532 142.797 8.742 143.253 9.018L142.317 11.016C141.849 10.74 141.375 10.554 140.895 10.458C140.427 10.35 139.971 10.296 139.527 10.296C138.903 10.296 138.447 10.38 138.159 10.548C137.871 10.716 137.727 10.932 137.727 11.196C137.727 11.436 137.829 11.616 138.033 11.736C138.249 11.856 138.531 11.952 138.879 12.024C139.227 12.096 139.605 12.162 140.013 12.222C140.433 12.27 140.853 12.348 141.273 12.456C141.693 12.564 142.071 12.72 142.407 12.924C142.755 13.116 143.037 13.386 143.253 13.734C143.469 14.07 143.577 14.514 143.577 15.066C143.577 15.666 143.397 16.2 143.037 16.668C142.677 17.124 142.155 17.484 141.471 17.748C140.799 18.012 139.977 18.144 139.005 18.144Z" fill="#845EC2"></path>
<path d="M47.996 30V21.6H49.604L54.56 27.648H53.78V21.6H55.7V30H54.104L49.136 23.952H49.916V30H47.996ZM60.6274 30.096C59.9394 30.096 59.3274 29.952 58.7914 29.664C58.2634 29.376 57.8434 28.984 57.5314 28.488C57.2274 27.984 57.0754 27.412 57.0754 26.772C57.0754 26.124 57.2274 25.552 57.5314 25.056C57.8434 24.552 58.2634 24.16 58.7914 23.88C59.3274 23.592 59.9394 23.448 60.6274 23.448C61.3074 23.448 61.9154 23.592 62.4514 23.88C62.9874 24.16 63.4074 24.548 63.7114 25.044C64.0154 25.54 64.1674 26.116 64.1674 26.772C64.1674 27.412 64.0154 27.984 63.7114 28.488C63.4074 28.984 62.9874 29.376 62.4514 29.664C61.9154 29.952 61.3074 30.096 60.6274 30.096ZM60.6274 28.56C60.9394 28.56 61.2194 28.488 61.4674 28.344C61.7154 28.2 61.9114 27.996 62.0554 27.732C62.1994 27.46 62.2714 27.14 62.2714 26.772C62.2714 26.396 62.1994 26.076 62.0554 25.812C61.9114 25.548 61.7154 25.344 61.4674 25.2C61.2194 25.056 60.9394 24.984 60.6274 24.984C60.3154 24.984 60.0354 25.056 59.7874 25.2C59.5394 25.344 59.3394 25.548 59.1874 25.812C59.0434 26.076 58.9714 26.396 58.9714 26.772C58.9714 27.14 59.0434 27.46 59.1874 27.732C59.3394 27.996 59.5394 28.2 59.7874 28.344C60.0354 28.488 60.3154 28.56 60.6274 28.56ZM68.0587 30.096C67.2987 30.096 66.7067 29.904 66.2827 29.52C65.8587 29.128 65.6467 28.548 65.6467 27.78V22.116H67.5187V27.756C67.5187 28.028 67.5907 28.24 67.7347 28.392C67.8787 28.536 68.0747 28.608 68.3227 28.608C68.6187 28.608 68.8707 28.528 69.0787 28.368L69.5827 29.688C69.3907 29.824 69.1587 29.928 68.8867 30C68.6227 30.064 68.3467 30.096 68.0587 30.096ZM64.6507 25.128V23.688H69.1267V25.128H64.6507ZM73.6383 30.096C72.9023 30.096 72.2543 29.952 71.6943 29.664C71.1423 29.376 70.7143 28.984 70.4103 28.488C70.1063 27.984 69.9543 27.412 69.9543 26.772C69.9543 26.124 70.1023 25.552 70.3983 25.056C70.7023 24.552 71.1143 24.16 71.6343 23.88C72.1543 23.592 72.7423 23.448 73.3983 23.448C74.0303 23.448 74.5983 23.584 75.1023 23.856C75.6143 24.12 76.0183 24.504 76.3143 25.008C76.6103 25.504 76.7583 26.1 76.7583 26.796C76.7583 26.868 76.7543 26.952 76.7463 27.048C76.7383 27.136 76.7303 27.22 76.7223 27.3H71.4783V26.208H75.7383L75.0183 26.532C75.0183 26.196 74.9503 25.904 74.8143 25.656C74.6783 25.408 74.4903 25.216 74.2503 25.08C74.0103 24.936 73.7303 24.864 73.4103 24.864C73.0903 24.864 72.8063 24.936 72.5583 25.08C72.3183 25.216 72.1303 25.412 71.9943 25.668C71.8583 25.916 71.7903 26.212 71.7903 26.556V26.844C71.7903 27.196 71.8663 27.508 72.0183 27.78C72.1783 28.044 72.3983 28.248 72.6783 28.392C72.9663 28.528 73.3023 28.596 73.6863 28.596C74.0303 28.596 74.3303 28.544 74.5863 28.44C74.8503 28.336 75.0903 28.18 75.3063 27.972L76.3023 29.052C76.0063 29.388 75.6343 29.648 75.1863 29.832C74.7383 30.008 74.2223 30.096 73.6383 30.096ZM80.0778 28.572V23.028H81.6258V28.572H80.0778ZM78.0018 26.532V25.068H83.7138V26.532H78.0018Z" fill="#00C9A7"></path>
<defs>
<linearGradient id="paint0_linear_7265_119432" x1="0" y1="0" x2="35" y2="35" gradientUnits="userSpaceOnUse">
<stop offset="0.370192" stop-color="#845EC2"></stop>
<stop offset="1" stop-color="#00C9A7"></stop>
</linearGradient>
<clipPath id="clip0_7265_119432">
<rect width="35" height="35" fill="white"></rect>
</clipPath>
</defs>
</svg>